<svg width="22" height="21" viewBox="0 0 22 21" fill="none" xmlns="http://www.w3.org/2000/svg">
<path d="M15 5.01057H15.01M2.4 16.0106H11C13.1217 16.0106 15.1566 15.1677 16.6569 13.6674C18.1571 12.1671 19 10.1323 19 8.01057V5.01057M19 5.01057C19.0023 4.15848 18.7323 3.32793 18.2296 2.63996C17.7269 1.95198 17.0175 1.44253 16.205 1.18583C15.3925 0.929129 14.5193 0.938601 13.7125 1.21286C12.9058 1.48713 12.2077 2.01185 11.72 2.71057L1 18.0106M19 5.01057L21 5.51057L19 6.01057M9 16.0106V19.0106M13 15.7606V19.0106M6 16.0106C7.23312 16.0105 8.43627 15.6305 9.44573 14.9223C10.4552 14.2141 11.2219 13.212 11.6416 12.0525C12.0612 10.893 12.1134 9.63231 11.7911 8.44207C11.4687 7.25184 10.7874 6.18982 9.84 5.40057" stroke="#007AFF" stroke-width="2" stroke-linecap="round" stroke-linejoin="round"/>
</svg>
