<svg width="13" height="16" viewBox="0 0 13 16" fill="none" xmlns="http://www.w3.org/2000/svg">
<path d="M4.4375 7.99914L5.8125 9.39891L8.5625 6.59938M12 8.69902C12 12.1984 9.59375 13.9481 6.73375 14.963C6.58399 15.0146 6.42131 15.0122 6.27313 14.956C3.40625 13.9481 1 12.1984 1 8.69902V3.79985C1 3.61423 1.07243 3.43621 1.20136 3.30495C1.3303 3.1737 1.50516 3.09996 1.6875 3.09996C3.0625 3.09996 4.78125 2.2601 5.9775 1.19628C6.12315 1.0696 6.30843 1 6.5 1C6.69157 1 6.87685 1.0696 7.0225 1.19628C8.22563 2.2671 9.9375 3.09996 11.3125 3.09996C11.4948 3.09996 11.6697 3.1737 11.7986 3.30495C11.9276 3.43621 12 3.61423 12 3.79985V8.69902Z" stroke="white" stroke-width="2" stroke-linecap="round" stroke-linejoin="round"/>
</svg>
